name D:\school\WTK\thesis\model\3dpredictsim\Results\test_WL_v2\Fal_s1_bCst_PF_Gefen2001_ls135_k90_Mmtp_ig24_v3.mot
datacolumns 128
datarows 4
range 1.18677795 1.22238129
endheader
time	pelvis_tilt	pelvis_list	pelvis_rotation	pelvis_tx	pelvis_ty	pelvis_tz	hip_flexion_l	hip_adduction_l	hip_rotation_l	hip_flexion_r	hip_adduction_r	hip_rotation_r	knee_angle_l	knee_angle_r	ankle_angle_l	ankle_angle_r	subtalar_angle_l	subtalar_angle_r	tmt_angle_l	tmt_angle_r	mtp_angle_l	mtp_angle_r	lumbar_extension	lumbar_bending	lumbar_rotation	arm_flex_l	arm_add_l	arm_rot_l	arm_flex_r	arm_add_r	arm_rot_r	elbow_flex_l	elbow_flex_r	pro_sup_l	pro_sup_r	glut_med1_l/activation	glut_med2_l/activation	glut_med3_l/activation	glut_min1_l/activation	glut_min2_l/activation	glut_min3_l/activation	semimem_l/activation	semiten_l/activation	bifemlh_l/activation	bifemsh_l/activation	sar_l/activation	add_long_l/activation	add_brev_l/activation	add_mag1_l/activation	add_mag2_l/activation	add_mag3_l/activation	tfl_l/activation	pect_l/activation	grac_l/activation	glut_max1_l/activation	glut_max2_l/activation	glut_max3_l/activation	iliacus_l/activation	psoas_l/activation	quad_fem_l/activation	gem_l/activation	peri_l/activation	rect_fem_l/activation	vas_med_l/activation	vas_int_l/activation	vas_lat_l/activation	med_gas_l/activation	lat_gas_l/activation	soleus_l/activation	tib_post_l/activation	flex_dig_l/activation	flex_hal_l/activation	tib_ant_l/activation	per_brev_l/activation	per_long_l/activation	per_tert_l/activation	ext_dig_l/activation	ext_hal_l/activation	ercspn_l/activation	intobl_l/activation	extobl_l/activation	glut_med1_r/activation	glut_med2_r/activation	glut_med3_r/activation	glut_min1_r/activation	glut_min2_r/activation	glut_min3_r/activation	semimem_r/activation	semiten_r/activation	bifemlh_r/activation	bifemsh_r/activation	sar_r/activation	add_long_r/activation	add_brev_r/activation	add_mag1_r/activation	add_mag2_r/activation	add_mag3_r/activation	tfl_r/activation	pect_r/activation	grac_r/activation	glut_max1_r/activation	glut_max2_r/activation	glut_max3_r/activation	iliacus_r/activation	psoas_r/activation	quad_fem_r/activation	gem_r/activation	peri_r/activation	rect_fem_r/activation	vas_med_r/activation	vas_int_r/activation	vas_lat_r/activation	med_gas_r/activation	lat_gas_r/activation	soleus_r/activation	tib_post_r/activation	flex_dig_r/activation	flex_hal_r/activation	tib_ant_r/activation	per_brev_r/activation	per_long_r/activation	per_tert_r/activation	ext_dig_r/activation	ext_hal_r/activation	ercspn_r/activation	intobl_r/activation	extobl_r/activation	
          1.18677795	         -2.92920612	         -3.03802583	          6.79551448	          1.48347243	          0.91506993	         -0.00339966	        -12.97770895	         -3.10135638	          4.43053563	         30.69425122	          4.28967195	         -4.21563028	        -18.21291423	        -14.39684761	         -9.45358999	          6.19430050	         17.61183377	         -7.04074665	         10.64214752	         -2.26943259	         24.00543327	          4.36148078	         -1.73119788	          1.24735926	         -2.16494612	          4.86936828	        -13.45961508	         17.68311105	         -7.22671079	        -13.49908729	          4.67623082	         43.25647465	         15.53589975	         86.51662706	         86.51662706	          0.07954599	          0.06357083	          0.07165603	          0.12201505	          0.11371824	          0.08594905	          0.05080612	          0.05708366	          0.05183361	          0.05000353	          0.08015843	          0.05999263	          0.05987880	          0.06014670	          0.06004634	          0.06019002	          0.25026891	          0.05004132	          0.05017216	          0.05270902	          0.05985380	          0.06022781	          0.38622335	          0.52229701	          0.06425559	          0.05802770	          0.06152379	          0.51238647	          0.21521681	          0.21092426	          0.19065764	          0.25848741	          0.30922771	          0.18797863	          0.19408438	          0.06357954	          0.13780852	          0.05000064	          0.06380463	          0.15413065	          0.05000192	          0.05000237	          0.07672787	          0.05000025	          0.08119418	          0.08588371	          0.05000021	          0.05000057	          0.11710067	          0.05000067	          0.05000076	          0.05000088	          0.18722127	          0.09958323	          0.21869464	          0.07711344	          0.07132314	          0.12337687	          0.26468246	          0.26746503	          0.17441347	          0.09898364	          0.05000275	          0.07219855	          0.15059234	          0.05003656	          0.11783954	          0.14093041	          0.05000149	          0.06701029	          0.55326139	          0.25671363	          0.14816963	          0.05988790	          0.05882670	          0.05534720	          0.05220315	          0.07173588	          0.07173646	          0.06246021	          0.05989138	          0.10348455	          0.05988388	          0.54236921	          0.27672408	          0.24052043	          0.10749913	          0.28123808	          0.07010785	          0.05000011	          0.10535819	          0.10868342	
          1.19864573	         -2.93017365	         -3.12184166	          7.08085371	          1.50219271	          0.91334250	         -0.00314923	        -13.72437754	         -3.47615004	          4.44337673	         29.96137394	          4.55357585	         -4.06745708	        -18.50231453	        -15.13993653	         -9.77871246	          5.65937625	         17.71652349	         -7.19019623	          7.82430168	         -2.48005355	         28.08798210	          3.51876220	         -1.46863624	          1.39964497	         -2.25483073	          4.48096573	        -13.47196517	         17.94540293	         -8.17640313	        -13.48598437	          4.69966303	         44.22437642	         15.01594472	         86.51662706	         86.51662706	          0.18409446	          0.06065799	          0.05992992	          0.22188507	          0.10302674	          0.07178694	          0.05002510	          0.05000259	          0.05000219	          0.05099767	          0.08593268	          0.05008860	          0.05001316	          0.05021616	          0.05013385	          0.05025210	          0.23077450	          0.05505406	          0.05004362	          0.05009025	          0.05003276	          0.05028453	          0.32244855	          0.54791779	          0.05364775	          0.05015544	          0.05991184	          0.43718493	          0.18473837	          0.18501708	          0.17451496	          0.21580254	          0.25816400	          0.15693709	          0.16203469	          0.05309413	          0.15710769	          0.07365784	          0.16034278	          0.14550346	          0.05011202	          0.05904586	          0.07173536	          0.05000100	          0.06778634	          0.07170155	          0.25795027	          0.23775779	          0.27273076	          0.27937481	          0.21853260	          0.23308192	          0.15630513	          0.08756048	          0.18258107	          0.09419750	          0.05995585	          0.10300387	          0.22097514	          0.22329897	          0.14561706	          0.13546119	          0.05000479	          0.06028764	          0.12573376	          0.05002749	          0.13951188	          0.11896771	          0.05965407	          0.05594630	          0.46189993	          0.21432272	          0.21163891	          0.05000053	          0.05000067	          0.05000070	          0.05000057	          0.05989009	          0.05989074	          0.05214622	          0.05000182	          0.16481271	          0.05000310	          0.61958276	          0.38536169	          0.22347184	          0.37667983	          0.33798919	          0.05990148	          0.05000174	          0.14766248	          0.09073623	
          1.21051351	         -2.93013808	         -3.20839027	          7.32671997	          1.52101629	          0.91163444	         -0.00286950	        -14.43185048	         -3.83981642	          4.45903936	         29.26308014	          4.79196701	         -3.91812670	        -18.81617826	        -15.90256968	        -10.14701118	          4.96320716	         17.75179028	         -7.35083142	          4.75511286	         -2.38374069	         32.42407129	          2.75722390	         -1.21736016	          1.56574115	         -2.33775780	          4.04498762	        -13.49153892	         18.15112154	         -9.11174955	        -13.47531990	          4.74482758	         45.14299629	         14.55781722	         86.51662706	         86.51662706	          0.15637214	          0.05064575	          0.05003597	          0.18526199	          0.08601721	          0.05993432	          0.05003281	          0.05000278	          0.05000265	          0.05000407	          0.07174559	          0.05571727	          0.05000702	          0.05000804	          0.05001558	          0.05000668	          0.19266780	          0.05999710	          0.05001552	          0.05021023	          0.05006898	          0.05001120	          0.26920271	          0.55384188	          0.05000940	          0.05006323	          0.05002062	          0.36499136	          0.18481467	          0.18266982	          0.17616413	          0.18016636	          0.21553258	          0.13102154	          0.13527746	          0.17877323	          0.23510081	          0.14003826	          0.16106869	          0.14437960	          0.14400108	          0.05989072	          0.05989497	          0.06182731	          0.05659262	          0.05986139	          0.35301246	          0.34709568	          0.36358407	          0.23324645	          0.21543493	          0.22164958	          0.13049419	          0.07310604	          0.15243106	          0.07864292	          0.05005929	          0.08599495	          0.18448527	          0.18642693	          0.12158125	          0.16988489	          0.05000630	          0.05033967	          0.10497349	          0.20965877	          0.19631978	          0.16920145	          0.05000133	          0.05000144	          0.38562555	          0.17893185	          0.17669484	          0.05000160	          0.07246311	          0.08196859	          0.09117440	          0.05000053	          0.05000123	          0.05000013	          0.05000111	          0.15577203	          0.15248865	          0.71522398	          0.36212273	          0.21375810	          0.65186306	          0.36142733	          0.05001161	          0.07283752	          0.12327866	          0.07575271	
          1.22238129	         -2.92926692	         -3.29948767	          7.53169663	          1.53974652	          0.91007315	         -0.00255376	        -15.04631241	         -4.18805273	          4.47994068	         28.70338835	          5.04812639	         -3.77209322	        -19.20744022	        -16.89251081	        -10.67176727	          4.34381898	         17.73543782	         -7.54381625	          1.54820714	         -2.31075677	         36.86881876	          2.06893875	         -0.99059464	          1.75239373	         -2.41458288	          3.60263233	        -13.51260613	         18.33104371	         -9.99240604	        -13.46614371	          4.79641058	         45.96279423	         14.14302960	         86.51662706	         86.51662706	          0.14664473	          0.05000203	          0.05000082	          0.15467445	          0.07181501	          0.05003858	          0.05001193	          0.05000098	          0.05000098	          0.05000098	          0.05989958	          0.05042545	          0.09762884	          0.05003354	          0.05024419	          0.09006514	          0.16085307	          0.05040340	          0.05000318	          0.05005035	          0.05002294	          0.05001216	          0.22474878	          0.53116978	          0.05000115	          0.05000391	          0.05000136	          0.30471917	          0.15429639	          0.15250575	          0.14707421	          0.15041491	          0.17994106	          0.10938551	          0.11293877	          0.15320098	          0.23587831	          0.18794058	          0.13630760	          0.12411646	          0.45531816	          0.05000126	          0.05000565	          0.08833304	          0.05000029	          0.05000042	          0.44590440	          0.43226688	          0.45446958	          0.23134579	          0.23459954	          0.29707400	          0.10894554	          0.06794447	          0.12725994	          0.06565712	          0.05000478	          0.07179537	          0.15402400	          0.15568219	          0.17308759	          0.19880437	          0.05000647	          0.05033167	          0.09200873	          0.26968874	          0.24068886	          0.21358099	          0.05000180	          0.05000173	          0.32194672	          0.14938531	          0.17995480	          0.05000100	          0.14531571	          0.15492955	          0.16190999	          0.05000049	          0.05000113	          0.05000018	          0.11470069	          0.20205991	          0.13356479	          0.78490480	          0.30232449	          0.17845970	          0.54422013	          0.35298630	          0.08256734	          0.08258506	          0.10292135	          0.06324348	
